<svg xmlns="http://www.w3.org/2000/svg" viewBox="0 -0.5 100 100" shape-rendering="crispEdges">
<metadata>Made with Pixels to Svg https://codepen.io/shshaw/pen/XbxvNj</metadata>
<path stroke="#9746ff" d="M35 20h10M35 21h10M35 22h10M35 23h10M35 24h10M30 25h5M30 26h5M30 27h5M30 28h5M30 29h5M85 30h5M85 31h5M85 32h5M85 33h5M85 34h5M85 35h5M85 36h5M85 37h5M85 38h5M85 39h5M50 50h5M80 50h5M50 51h5M80 51h5M50 52h5M80 52h5M50 53h5M80 53h5M50 54h5M80 54h5" />
<path stroke="#611ebf" d="M75 20h10M75 21h10M75 22h10M75 23h10M75 24h10M85 25h5M85 26h5M85 27h5M85 28h5M85 29h5M25 30h5M90 30h5M25 31h5M90 31h5M25 32h5M90 32h5M25 33h5M90 33h5M25 34h5M90 34h5M25 35h5M25 36h5M25 37h5M25 38h5M25 39h5M30 40h5M30 41h5M30 42h5M30 43h5M30 44h5M35 45h10M35 46h10M35 47h10M35 48h10M35 49h10" />
<path stroke="#cf6eff" d="M35 25h10M80 25h5M35 26h10M80 26h5M35 27h10M80 27h5M35 28h10M80 28h5M35 29h10M80 29h5M40 30h10M80 30h5M40 31h10M80 31h5M40 32h10M80 32h5M40 33h10M80 33h5M40 34h10M80 34h5M40 35h5M40 36h5M40 37h5M40 38h5M40 39h5M35 40h5M35 41h5M35 42h5M35 43h5M35 44h5" />
<path stroke="#280479" d="M45 25h5M45 26h5M45 27h5M45 28h5M45 29h5M50 30h5M50 31h5M50 32h5M50 33h5M50 34h5M50 35h5M90 35h5M50 36h5M90 36h5M50 37h5M90 37h5M50 38h5M90 38h5M50 39h5M90 39h5M45 40h5M85 40h5M45 41h5M85 41h5M45 42h5M85 42h5M45 43h5M85 43h5M45 44h5M85 44h5M55 50h5M65 50h5M75 50h5M85 50h5M55 51h5M65 51h5M75 51h5M85 51h5M55 52h5M65 52h5M75 52h5M85 52h5M55 53h5M65 53h5M75 53h5M85 53h5M55 54h5M65 54h5M75 54h5M85 54h5M45 55h5M55 55h25M85 55h5M45 56h5M55 56h25M85 56h5M45 57h5M55 57h25M85 57h5M45 58h5M55 58h25M85 58h5M45 59h5M55 59h25M85 59h5M80 60h10M80 61h10M80 62h10M80 63h10M80 64h10" />
<path stroke="#895444" d="M50 25h20M50 26h20M50 27h20M50 28h20M50 29h20M35 50h10M35 51h10M35 52h10M35 53h10M35 54h10M30 55h10M30 56h10M30 57h10M30 58h10M30 59h10M25 60h10M25 61h10M25 62h10M25 63h10M25 64h10M25 65h15M25 66h15M25 67h15M25 68h15M25 69h15M25 70h5M25 71h5M25 72h5M25 73h5M25 74h5" />
<path stroke="#59342f" d="M70 25h10M70 26h10M70 27h10M70 28h10M70 29h10M50 45h40M50 46h40M50 47h40M50 48h40M50 49h40M45 50h5M45 51h5M45 52h5M45 53h5M45 54h5M25 55h5M25 56h5M25 57h5M25 58h5M25 59h5M35 70h30M35 71h30M35 72h30M35 73h30M35 74h30M40 75h15M40 76h15M40 77h15M40 78h15M40 79h15" />
<path stroke="#ff8eff" d="M30 30h10M30 31h10M30 32h10M30 33h10M30 34h10M30 35h10M45 35h5M30 36h10M45 36h5M30 37h10M45 37h5M30 38h10M45 38h5M30 39h10M45 39h5M40 40h5M40 41h5M40 42h5M40 43h5M40 44h5M60 50h5M70 50h5M60 51h5M70 51h5M60 52h5M70 52h5M60 53h5M70 53h5M60 54h5M70 54h5M50 55h5M80 55h5M50 56h5M80 56h5M50 57h5M80 57h5M50 58h5M80 58h5M50 59h5M80 59h5" />
<path stroke="#f6a06f" d="M55 30h25M55 31h25M55 32h25M55 33h25M55 34h25M55 35h10M70 35h5M80 35h5M55 36h10M70 36h5M80 36h5M55 37h10M70 37h5M80 37h5M55 38h10M70 38h5M80 38h5M55 39h10M70 39h5M80 39h5M50 40h35M50 41h35M50 42h35M50 43h35M50 44h35M45 60h25M45 61h25M45 62h25M45 63h25M45 64h25M50 65h20M50 66h20M50 67h20M50 68h20M50 69h20" />
<path stroke="#b57c63" d="M65 35h5M75 35h5M65 36h5M75 36h5M65 37h5M75 37h5M65 38h5M75 38h5M65 39h5M75 39h5M45 45h5M45 46h5M45 47h5M45 48h5M45 49h5M35 60h10M70 60h5M35 61h10M70 61h5M35 62h10M70 62h5M35 63h10M70 63h5M35 64h10M70 64h5M40 65h10M70 65h5M40 66h10M70 66h5M40 67h10M70 67h5M40 68h10M70 68h5M40 69h10M70 69h5" />
<path stroke="#180c1a" d="M30 45h5M30 46h5M30 47h5M30 48h5M30 49h5M30 50h5M30 51h5M30 52h5M30 53h5M30 54h5M40 55h5M40 56h5M40 57h5M40 58h5M40 59h5M20 60h5M75 60h5M20 61h5M75 61h5M20 62h5M75 62h5M20 63h5M75 63h5M20 64h5M75 64h5M20 65h5M75 65h5M20 66h5M75 66h5M20 67h5M75 67h5M20 68h5M75 68h5M20 69h5M75 69h5M15 70h10M30 70h5M65 70h10M15 71h10M30 71h5M65 71h10M15 72h10M30 72h5M65 72h10M15 73h10M30 73h5M65 73h10M15 74h10M30 74h5M65 74h10M10 75h30M55 75h15M10 76h30M55 76h15M10 77h30M55 77h15M10 78h30M55 78h15M10 79h30M55 79h15M10 80h15M30 80h10M55 80h20M10 81h15M30 81h10M55 81h20M10 82h15M30 82h10M55 82h20M10 83h15M30 83h10M55 83h20M10 84h15M30 84h10M55 84h20" />
</svg>