<svg xmlns="http://www.w3.org/2000/svg" viewBox="0 -0.5 16 16" shape-rendering="crispEdges">
<metadata>Made with Pixels to Svg https://codepen.io/shshaw/pen/XbxvNj</metadata>
<path stroke="#9528c1" d="M5 1h2M4 2h1M3 3h1M10 3h1M2 4h1M9 4h3M1 5h1M8 5h2M11 5h2M1 6h1M8 6h1M12 6h1M1 7h1M1 8h1M7 11h1M7 12h2" />
<path stroke="#4800a6" d="M7 1h3M10 2h1M11 3h1M12 4h1M10 5h1M9 6h3M11 7h2M12 8h1M1 9h1M7 9h1M2 10h1M7 10h2M3 11h1M8 11h2M4 12h1M9 12h1M5 13h2" />
<path stroke="#d091ff" d="M5 2h1M4 3h1M6 3h1M3 4h1M2 5h1M2 6h1M2 7h1M2 8h2M2 9h4M3 10h2" />
<path stroke="#5277f2" d="M6 2h4M7 3h3M7 4h2M6 9h1M5 10h2M4 11h3M5 12h2" />
<path stroke="#b2faff" d="M5 3h1M4 4h3M3 5h5M3 6h5M3 7h5M4 8h4" />
<path stroke="#120073" d="M13 5h1M13 6h1M8 7h3M13 7h1M8 8h4M13 8h1M8 9h6M9 10h4M10 11h2M10 12h1M7 13h3" />
</svg>